<svg width="178" height="72" viewBox="0 0 178 72" fill="none" xmlns="http://www.w3.org/2000/svg">
<g filter="url(#filter0_d)">
<path fill-rule="evenodd" clip-rule="evenodd" d="M172.874 24.6571C172.113 22.2261 171.053 20.0266 169.563 18.1082C168.074 16.1899 166.253 14.8007 164.101 13.7588C163.488 13.4281 162.743 13.0973 162.114 12.932C162.114 12.932 161.882 12.7997 161.667 12.7997C161.568 12.7997 161.452 12.7997 161.336 12.6839C161.253 12.6839 161.137 12.6839 161.137 12.5681L159.565 12.2374C158.406 12.0389 156.916 11.9397 155.194 12.0389C152.645 12.1547 150.394 12.7004 148.407 13.6265C146.255 14.6849 144.434 16.1733 142.944 17.9594C141.454 19.8777 140.395 21.978 139.633 24.5248C138.905 26.9393 138.574 29.6845 138.574 32.4298C138.574 35.2908 138.905 37.9368 139.65 40.3678C140.411 42.7988 141.587 44.9983 142.961 46.8175C144.037 48.0909 145.196 49.1327 146.603 50.0919C147.232 50.5219 147.761 50.8361 148.424 51.1503H148.506C148.506 51.1503 148.606 51.1503 148.606 51.2495C148.677 51.2495 148.71 51.2828 148.74 51.3136C148.767 51.3404 148.791 51.3653 148.838 51.3653C149.914 51.8945 151.089 52.1922 152.364 52.4237C156.088 53.1513 159.283 52.6387 159.283 52.6387C160.988 52.4237 162.594 51.8945 164.084 51.2495C166.319 50.1911 168.123 48.7193 169.63 46.9167C171.12 45.1306 172.179 42.8981 172.941 40.467C173.669 38.036 174 35.39 174 32.529C174 29.6845 173.57 27.0385 172.924 24.5909L172.874 24.6571ZM147.927 26.9724C148.357 25.3186 148.887 23.7145 149.632 22.4411C150.377 21.1842 151.337 20.1258 152.397 19.3981C153.473 18.654 154.747 18.2405 156.121 18.2405C157.512 18.2405 158.687 18.5382 159.763 19.2824C160.823 20.01 161.667 20.9361 162.412 22.1269C163.157 23.4002 163.703 24.7729 164.117 26.4597C164.564 28.1465 164.779 29.8499 164.779 31.7517V32.3801C164.779 34.282 164.564 36.1838 164.25 37.8706C163.819 39.574 163.289 41.0458 162.544 42.3358C161.8 43.5926 160.839 44.5353 159.763 45.2795C158.704 46.0237 157.446 46.3379 156.039 46.3379C154.648 46.3379 153.39 46.0071 152.314 45.2795C151.238 44.5353 150.278 43.5926 149.533 42.3027C148.771 41.0458 148.242 39.574 147.811 37.8706C147.397 36.1838 147.281 34.282 147.281 32.3801C147.397 30.561 147.613 28.6757 147.944 26.9889L147.927 26.9724ZM124.569 53.0025L120.43 57.7488L120 58.1788L120.43 64H126.82L133.541 56.4919V32.6117L133.343 30.7925L124.569 35.3238V53.0025Z" fill="white"/>
<path fill-rule="evenodd" clip-rule="evenodd" d="M70.6959 10.8613L66.5476 6.24851L66 5.85593L66.4314 0L72.8199 0.0981441L79.6896 7.52438V31.6842L79.4905 33.0255L70.6959 28.4454V10.8613ZM129.57 17.3551C131.063 19.2526 132.125 21.4281 132.888 23.8327L132.921 23.7672C133.668 26.1881 134 28.8053 134 31.6187C134 34.4486 133.668 37.0657 132.938 39.4703C132.175 41.8748 131.113 44.083 129.619 45.8496C128.126 47.6326 126.301 49.0884 124.061 50.1353C122.567 50.7732 120.958 51.2966 119.248 51.5093C119.248 51.5093 116.046 52.0164 112.312 51.2966C111.035 51.0676 109.857 50.7732 108.795 50.2498C108.734 50.2498 108.705 50.2189 108.677 50.1892C108.652 50.1617 108.627 50.1353 108.579 50.1353C108.579 50.0371 108.463 50.0371 108.463 50.0371H108.38C107.716 49.7263 107.185 49.4155 106.554 48.9902C105.161 48.0415 103.982 47.011 102.904 45.7515C101.527 43.9522 100.348 41.7767 99.5852 39.3721C98.8551 36.9676 98.5232 34.3504 98.5232 31.5206C98.5232 28.8053 98.8385 26.09 99.5686 23.7018C100.332 21.1828 101.394 19.1054 102.887 17.2079C104.381 15.4413 106.206 13.9692 108.363 12.9223C110.354 12.0063 112.611 11.4665 115.166 11.352C116.892 11.2539 118.386 11.352 119.547 11.5483L121.123 11.8754C121.123 11.9899 121.24 11.9899 121.323 11.9899C121.455 12.1044 121.555 12.1044 121.654 12.1044C121.87 12.1044 122.102 12.2353 122.102 12.2353C122.733 12.3989 123.48 12.726 124.094 13.0532C126.251 14.0837 128.076 15.4577 129.57 17.3551ZM109.691 21.6408C108.944 22.9003 108.413 24.4869 107.998 26.1227L108.015 26.139C107.589 27.7863 107.47 29.6249 107.355 31.4029L107.351 31.4715C107.351 33.3526 107.45 35.2337 107.882 36.9022C108.313 38.587 108.844 40.0428 109.591 41.2859C110.338 42.5618 111.3 43.4942 112.362 44.2303C113.441 44.95 114.718 45.2771 116.129 45.2771C117.506 45.2771 118.8 44.9663 119.862 44.2303C120.924 43.4942 121.887 42.5618 122.617 41.3187C123.364 40.0428 123.911 38.587 124.326 36.9022C124.658 35.2337 124.89 33.3526 124.89 31.4715V30.85C124.89 28.9689 124.658 27.2841 124.226 25.6156C123.795 23.9472 123.264 22.5895 122.517 21.33C121.771 20.1522 120.908 19.2362 119.862 18.5165C118.784 17.7804 117.606 17.486 116.212 17.486C114.801 17.486 113.54 17.8949 112.478 18.631C111.4 19.3507 110.437 20.3976 109.691 21.6408ZM84.4685 11.5156H93.429V52H84.4685V11.5156Z" fill="white"/>
<path fill-rule="evenodd" clip-rule="evenodd" d="M88.8743 2C86.5969 2 84.7486 3.8681 84.7486 6.16987C84.7486 8.58839 86.5969 10.4398 88.8743 10.3397C91.1517 10.3397 93 8.47163 93 6.16987C93 3.8681 91.1517 2 88.8743 2ZM34.8934 18.9964C36.3786 20.9312 37.4348 23.1496 38.194 25.6014L38.227 25.5347C38.9696 28.0033 39.2996 30.672 39.2996 33.5409C39.2996 36.4264 38.9696 39.0951 38.2435 41.547C37.4843 43.9989 36.4281 46.2506 34.9429 48.052C33.4576 49.8701 31.6423 51.3545 29.4144 52.422C27.9292 53.0725 26.3284 53.6063 24.6286 53.8231C24.6286 53.8231 21.4435 54.3402 17.7304 53.6063C16.4597 53.3728 15.288 53.0725 14.2153 52.5388C14.1163 52.5388 14.1163 52.5388 14.0172 52.422C14.0172 52.322 13.9017 52.322 13.9017 52.322H13.8192C13.1591 52.005 12.631 51.6881 12.0039 51.2545C10.6177 50.2871 9.44595 49.2363 8.37326 47.9519C6.888 46.1172 5.83182 43.9989 5.07269 41.4469C4.33006 38.9951 4 36.3263 4 33.4408C4 30.672 4.33006 27.9032 5.05618 25.468C5.81532 22.8994 6.8715 20.7811 8.35676 18.8463C9.84202 17.0449 11.6573 15.5437 13.8027 14.4762C15.7831 13.5422 18.0274 12.9918 20.5689 12.875C22.2852 12.7749 23.7704 12.875 24.9256 13.0752L26.4934 13.4088C26.4934 13.5255 26.6089 13.5255 26.6915 13.5255C26.8235 13.6423 26.9225 13.6423 27.0215 13.6423C27.236 13.6423 27.4671 13.7757 27.4671 13.7757C28.0942 13.9425 28.8368 14.2761 29.4474 14.6097C31.5928 15.6605 33.4081 17.0616 34.8934 18.9964ZM78.4775 25.6014C77.7183 23.1496 76.6622 20.9312 75.1769 18.9964C73.6916 17.0616 71.8763 15.6605 69.7309 14.6097C69.1203 14.2761 68.3777 13.9425 67.7506 13.7757C67.7506 13.7757 67.5196 13.6423 67.305 13.6423C67.206 13.6423 67.0905 13.6423 66.975 13.5255C66.8759 13.5255 66.7769 13.5255 66.7769 13.4088L65.1927 13.0752C64.0375 12.875 62.5522 12.7749 60.8524 12.875C58.311 12.9918 56.0666 13.5422 54.0862 14.4762C51.9408 15.5437 50.1255 17.0449 48.6403 18.8463C47.155 20.7811 46.0988 22.8994 45.3397 25.468C44.6136 27.9032 44.2835 30.672 44.2835 33.4408C44.2835 36.3263 44.6136 38.9951 45.3562 41.4469C46.1153 43.8988 47.2705 46.1172 48.6568 47.9519C49.7295 49.2363 50.8847 50.2871 52.2874 51.2545C52.9145 51.6881 54.1852 52.322 54.1852 52.322C54.1852 52.322 54.2843 52.322 54.2843 52.422C54.355 52.422 54.3878 52.4556 54.4183 52.4867C54.4447 52.5136 54.4693 52.5388 54.5153 52.5388C55.588 53.0725 56.7432 53.3728 58.0304 53.6063C61.7436 54.3402 64.9286 53.8231 64.9286 53.8231C66.6284 53.6063 68.2292 53.0725 69.7144 52.422C71.9423 51.3545 73.7411 49.8701 75.2429 48.052C76.7282 46.2506 77.7844 43.9989 78.5435 41.547C79.2696 39.0951 79.5832 36.4264 79.5832 33.5409C79.5832 30.672 79.1706 28.0033 78.527 25.5347L78.4775 25.6014ZM53.6076 27.9366C54.0367 26.2686 54.5648 24.6507 55.3074 23.3664C56.0501 22.0988 57.0072 21.0313 58.0634 20.2974C59.1361 19.5468 60.4068 19.1298 61.7766 19.1298C63.1628 19.1298 64.3345 19.43 65.4072 20.1806C66.4634 20.9145 67.305 21.8486 68.0477 23.0495C68.7903 24.3338 69.3184 25.7182 69.7475 27.4195C70.193 29.1208 70.4076 30.8388 70.4076 32.7569V33.3908C70.4076 35.3089 70.193 37.227 69.8795 38.9283C69.4504 40.6463 68.9223 42.1308 68.1797 43.4318C67.437 44.6994 66.4799 45.6502 65.4072 46.4007C64.351 47.1513 63.0968 47.4682 61.694 47.4682C60.3078 47.4682 59.0536 47.1346 57.9809 46.4007C56.9082 45.6502 55.951 44.6994 55.2084 43.3984C54.4493 42.1308 53.9212 40.6463 53.4921 38.9283C53.0795 37.227 52.964 35.3089 52.964 33.3908C53.0795 31.556 53.2941 29.6546 53.6241 27.9533L53.6076 27.9366ZM13.4396 27.9366C13.8522 26.2686 14.3803 24.6507 15.1229 23.3664C15.8656 22.0988 16.8227 21.0313 17.8954 20.2974C18.9516 19.5468 20.2058 19.1298 21.6086 19.1298C22.9948 19.1298 24.1665 19.43 25.2392 20.1806C26.2789 20.9145 27.137 21.8486 27.8797 23.0495C28.6223 24.3338 29.1504 25.7182 29.5795 27.4195C30.0085 29.1208 30.2396 30.8388 30.2396 32.7569L30.2066 33.3908C30.2066 35.3089 30.0085 37.227 29.6785 38.9283C29.2659 40.6463 28.7213 42.1308 27.9787 43.4318C27.2526 44.6994 26.2954 45.6502 25.2392 46.4007C24.183 47.1513 22.8958 47.4682 21.5261 47.4682C20.1233 47.4682 18.8526 47.1346 17.7799 46.4007C16.7237 45.6502 15.7666 44.6994 15.0239 43.3984C14.3638 42.3476 13.8687 40.8632 13.4231 39.0618C12.9941 37.3438 12.8785 35.3923 12.8785 33.4908C12.8785 31.5727 12.9941 29.6546 13.4066 27.9533L13.4396 27.9366Z" fill="white"/>
</g>
<defs>
<filter id="filter0_d" x="0" y="0" width="178" height="72" filterUnits="userSpaceOnUse" color-interpolation-filters="sRGB">
<feFlood flood-opacity="0" result="BackgroundImageFix"/>
<feColorMatrix in="SourceAlpha" type="matrix" values="0 0 0 0 0 0 0 0 0 0 0 0 0 0 0 0 0 0 127 0"/>
<feOffset dy="4"/>
<feGaussianBlur stdDeviation="2"/>
<feColorMatrix type="matrix" values="0 0 0 0 0 0 0 0 0 0 0 0 0 0 0 0 0 0 0.25 0"/>
<feBlend mode="normal" in2="BackgroundImageFix" result="effect1_dropShadow"/>
<feBlend mode="normal" in="SourceGraphic" in2="effect1_dropShadow" result="shape"/>
</filter>
</defs>
</svg>
